<svg xmlns="http://www.w3.org/2000/svg" class="svg-logo" width="2400" height="2400" viewBox="0 0 630 430" style="height: auto;"><rect width="630" height="630" y="-100" rx="0" ry="0" fill="#ffffff" fill-opacity="1"></rect><g data-element="wrapper" transform="translate(71.27579498290754 5.9000045776344905) scale(0.9000000000000097)"><g ><g data-element="icon" transform="scale(0.15901429384087726) translate(2671.6627594599495 1054.4414443969727)"><path id="color_x5F_2" d="M214.105,358.422c14.992-1.301,28.635,4.687,37.784,14.812    c9.46,10.472,22.623,16.841,36.736,16.841h4.78c14.112,0,27.275-6.368,36.735-16.841c9.147-10.125,22.79-16.112,37.783-14.812    c22.154,1.92,39.913,20.162,41.295,42.357c1.645,26.413-19.291,48.35-45.352,48.35c-13.569,0-25.749-5.947-34.074-15.378    c-9.004-10.198-21.643-16.451-35.246-16.451h-7.064c-13.603,0-26.243,6.253-35.246,16.451c-8.326,9.431-20.505,15.378-34.075,15.378    c-26.059,0-46.996-21.935-45.352-48.349C174.193,378.585,191.951,360.342,214.105,358.422z M98.635,500.838    c-1.645,26.415,19.292,48.35,45.352,48.35c13.569,0,25.749-5.947,34.075-15.379c9.003-10.197,21.642-16.449,35.246-16.449h7.064    c13.603,0,26.243,6.252,35.245,16.449c8.325,9.432,20.506,15.379,34.075,15.379c26.06,0,46.997-21.936,45.351-48.351    c-1.382-22.194-19.139-40.437-41.294-42.357c-14.992-1.3-28.635,4.688-37.783,14.813c-9.461,10.472-22.623,16.841-36.736,16.841    h-4.778c-14.114,0-27.277-6.369-36.738-16.841c-9.147-10.126-22.79-16.112-37.783-14.813    C117.774,460.4,100.016,478.644,98.635,500.838z" fill="#000000" fill-opacity="1"></path> <path id="color_x5F_1" d="M335.041,88.623c1.645,26.414-19.291,48.349-45.352,48.349    c-13.569,0-25.749-5.947-34.074-15.378c-9.002-10.198-21.642-16.451-35.245-16.451h-7.064c-13.604,0-26.242,6.252-35.246,16.451    c-8.326,9.431-20.505,15.378-34.075,15.378c-26.06,0-46.997-21.937-45.352-48.35c1.382-22.195,19.14-40.437,41.295-42.357    c14.993-1.301,28.634,4.687,37.782,14.812c9.461,10.472,22.624,16.841,36.736,16.841h4.779c14.112,0,27.275-6.369,36.736-16.841    c9.148-10.126,22.791-16.112,37.783-14.812C315.902,48.186,333.66,66.427,335.041,88.623z M367.925,146.323    c-14.993-1.301-28.636,4.686-37.784,14.812c-9.46,10.472-22.623,16.84-36.736,16.84h-4.78c-14.112,0-27.275-6.369-36.735-16.84    c-9.148-10.125-22.791-16.112-37.783-14.813c-22.154,1.922-39.913,20.163-41.295,42.358c-1.645,26.415,19.292,48.351,45.352,48.351    c13.57,0,25.749-5.948,34.075-15.379c9.003-10.197,21.643-16.45,35.246-16.45h7.064c13.604,0,26.242,6.252,35.246,16.45    c8.325,9.432,20.505,15.379,34.074,15.379c26.06,0,46.996-21.935,45.352-48.35C407.837,166.485,390.079,148.244,367.925,146.323z     M455.346,250.55c-14.992-1.3-28.635,4.687-37.782,14.813c-9.461,10.472-22.624,16.841-36.736,16.841h-4.78    c-14.111,0-27.274-6.369-36.736-16.841c-9.147-10.126-22.789-16.112-37.781-14.813c-22.156,1.921-39.914,20.162-41.295,42.357    c-1.645,26.415,19.291,48.351,45.352,48.351c13.569,0,25.748-5.948,34.074-15.379c9.004-10.198,21.642-16.45,35.246-16.45h7.063    c13.604,0,26.242,6.252,35.245,16.45c8.326,9.431,20.505,15.379,34.075,15.379c26.061,0,46.996-21.936,45.352-48.35    C495.26,270.713,477.502,252.472,455.346,250.55z" fill="#cccccc" fill-opacity="1"></path></g><path d="M129.49 217.14L129.49 217.14Q129.49 213.31 130.59 209.41Q131.70 205.51 133.98 202.72L133.98 202.72Q138.83 196.54 147.81 196.54L147.81 196.54Q152.96 196.54 157.81 198.82L157.81 198.82Q159.06 199.34 159.06 200.51L159.06 200.51Q159.06 202.72 157.30 202.79L157.30 202.79Q156.93 202.79 156.63 202.72L156.63 202.72Q151.56 200.95 148.58 200.95Q145.60 200.95 143.61 201.62Q141.63 202.28 140.16 203.46Q138.69 204.63 137.66 206.18Q136.63 207.72 136.04 209.63L136.04 209.63Q134.79 213.17 134.79 217.14L134.79 217.14Q134.79 223.61 137.66 228.03L137.66 228.03Q141.04 233.25 148.10 233.25L148.10 233.25Q152.96 233.25 157.37 230.67L157.37 230.67Q157.96 230.53 158.51 230.53Q159.06 230.53 159.54 231.04Q160.02 231.56 160.02 232.37Q160.02 233.17 159.43 233.87Q158.84 234.57 157.85 235.12Q156.86 235.68 155.64 236.12Q154.43 236.56 153.10 236.85L153.10 236.85Q150.31 237.59 147.81 237.59L147.81 237.59Q138.76 237.59 133.98 231.48L133.98 231.48Q129.49 225.97 129.49 217.14ZM193.27 211.25L193.27 234.94Q193.27 235.97 192.50 236.49Q191.72 237 191.17 237Q190.62 237 190.18 236.89Q189.74 236.78 189.44 236.41L189.44 236.41Q188.71 235.90 188.71 234.94L188.71 234.94L188.71 232.37Q186.94 236.26 182.23 237.22L182.23 237.22Q180.76 237.59 179.07 237.59Q177.38 237.59 175.54 237Q173.70 236.41 172.38 235.09L172.38 235.09Q169.43 232.29 169.43 226.70L169.43 226.70L169.43 211.25Q169.43 210.22 170.10 209.63Q170.76 209.05 171.64 209.05L171.64 209.05Q172.52 209.05 173.19 209.63Q173.85 210.22 173.85 211.25L173.85 211.25L173.85 227.07Q173.85 231.04 175.47 232.59L175.47 232.59Q177.09 234.13 180.32 234.13L180.32 234.13Q185.77 234.13 187.83 229.72L187.83 229.72Q188.63 228.17 188.71 226.19L188.71 226.19L188.71 211.25Q188.71 210.22 189.44 209.63Q190.18 209.05 191.06 209.05L191.06 209.05Q191.95 209.05 192.61 209.63Q193.27 210.22 193.27 211.25L193.27 211.25ZM226.74 222.21L226.74 222.21Q226.74 223.76 224.98 223.91L224.98 223.91L204.82 223.91Q205.11 231.41 210.70 233.62L210.70 233.62Q212.25 234.13 214.23 234.13L214.23 234.13Q218.35 234.13 222.62 231.11L222.62 231.11Q223.95 230.38 224.83 231.26L224.83 231.26Q225.27 231.70 225.12 232.14L225.12 232.14Q225.12 233.17 224.61 233.62L224.61 233.62Q220.56 237.66 213.94 237.59L213.94 237.59Q207.91 237.59 204.23 233.69L204.23 233.69Q200.11 229.64 200.11 223.02L200.11 223.02Q200.11 216.92 203.49 212.94L203.49 212.94Q207.03 208.53 213.50 208.53L213.50 208.53Q219.97 208.53 223.36 212.43L223.36 212.43Q226.59 215.96 226.74 222.21ZM204.97 220.89L222.40 220.89Q222.18 216.92 219.83 214.34L219.83 214.34Q217.62 211.99 213.50 211.99L213.50 211.99Q209.97 211.99 207.47 214.64L207.47 214.64Q205.19 217.29 204.97 220.89L204.97 220.89ZM233.66 234.94L233.66 211.18Q233.66 210.22 234.39 209.63Q235.13 209.05 235.86 209.05L235.86 209.05Q237.41 209.05 237.85 210.22Q238.29 211.40 238.07 213.75L238.07 213.75Q238.95 211.55 241.89 209.93L241.89 209.93Q244.47 208.53 247.01 208.53Q249.55 208.53 251.31 209.16Q253.08 209.78 254.55 211.11L254.55 211.11Q257.49 213.90 257.49 219.34L257.49 219.34L257.49 234.94Q257.49 235.97 256.72 236.49Q255.95 237 255.14 237L255.14 237Q254.25 237 253.59 236.45Q252.93 235.90 252.93 234.94L252.93 234.94L252.93 219.05Q252.93 215.59 251.02 213.75L251.02 213.75Q249.25 211.99 246.60 211.99L246.60 211.99Q243.07 211.99 240.57 214.05L240.57 214.05Q238.07 216.26 238.07 220.82L238.07 220.82L238.07 234.94Q238.07 235.97 237.33 236.49Q236.60 237 235.72 237L235.72 237Q234.83 237 234.24 236.45Q233.66 235.90 233.66 234.94L233.66 234.94ZM280.81 235.38L280.81 235.38Q280.81 237.59 275.59 237.59L275.59 237.59Q271.69 237.59 270.07 235.46L270.07 235.46Q268.30 233.17 268.16 227.95L268.16 227.95L268.16 212.50L264.92 212.50Q264.04 212.50 263.52 211.95Q263.01 211.40 263.01 210.81L263.01 210.81Q263.01 210.22 263.45 209.63Q263.89 209.05 264.92 209.05L264.92 209.05L268.45 209.05L268.75 201.10Q268.89 200.22 269.55 199.74Q270.22 199.26 270.95 199.26Q271.69 199.26 272.20 199.70Q272.72 200.14 272.72 201.10L272.72 201.10L272.72 209.05L277.79 209.05Q278.68 209.05 279.15 209.63Q279.63 210.22 279.63 210.81L279.63 210.81Q279.63 211.55 279.15 212.03Q278.68 212.50 277.79 212.50L277.79 212.50L272.72 212.50L272.72 225.52Q272.72 230.97 273.09 232.11Q273.45 233.25 274.26 233.69Q275.07 234.13 276.25 234.13L276.25 234.13L279.12 233.91Q279.93 233.91 280.37 234.43Q280.81 234.94 280.81 235.38ZM299.05 220.01L299.05 220.01Q300.60 220.01 302.14 220.08L302.14 220.08L302.14 217.73Q302.14 211.99 295.74 211.99L295.74 211.99Q292.87 211.99 291.55 212.50L291.55 212.50Q289.20 213.39 288.17 214.01Q287.14 214.64 286.55 214.64Q285.96 214.64 285.44 214.20Q284.93 213.75 284.93 213.02L284.93 213.02Q284.93 212.43 285.59 211.84L285.59 211.84Q289.05 208.53 295.82 208.53L295.82 208.53Q303.61 208.53 305.82 213.75L305.82 213.75Q306.56 215.59 306.56 218.02L306.56 218.02L306.41 235.01Q306.41 235.97 305.75 236.49Q305.09 237 304.28 237Q303.47 237 302.80 236.56Q302.14 236.12 302.14 235.09L302.14 235.09L302.14 232.44Q300.38 236.26 295.82 237.22L295.82 237.22Q294.42 237.59 292.65 237.59Q290.89 237.59 289.16 237.07Q287.43 236.56 286.11 235.46L286.11 235.46Q283.38 233.17 283.38 229.28L283.38 229.28Q283.38 220.01 299.05 220.01ZM302.14 225.82L302.14 223.32Q300.97 223.46 299.42 223.46Q297.88 223.46 296.26 223.50Q294.64 223.54 293.17 223.87Q291.70 224.20 290.52 224.86L290.52 224.86Q288.02 226.19 287.87 229.20L287.87 229.20Q287.87 231.56 289.78 232.88L289.78 232.88Q291.26 234.06 293.98 234.13L293.98 234.13Q297.29 234.13 299.72 232.00L299.72 232.00Q301.92 229.94 302.14 225.82L302.14 225.82ZM315.75 234.57L315.75 199.26Q315.75 198.16 316.49 197.50Q317.22 196.83 318.25 196.83L318.25 196.83L337.97 196.83Q339.07 196.83 339.55 197.50Q340.03 198.16 340.03 198.93Q340.03 199.70 339.55 200.37Q339.07 201.03 337.97 201.03L337.97 201.03L320.90 201.03L320.90 214.05L337.31 214.05Q338.41 214.05 338.92 214.71Q339.44 215.37 339.44 216.14Q339.44 216.92 338.85 217.54Q338.26 218.17 337.31 218.17L337.31 218.17L320.90 218.17L320.90 234.57Q320.90 235.68 320.31 236.26L320.31 236.26Q318.40 237.66 316.63 236.41L316.63 236.41Q315.90 235.90 315.75 234.57L315.75 234.57ZM360.48 220.01L360.48 220.01Q362.02 220.01 363.57 220.08L363.57 220.08L363.57 217.73Q363.57 211.99 357.17 211.99L357.17 211.99Q354.30 211.99 352.98 212.50L352.98 212.50Q350.62 213.39 349.59 214.01Q348.56 214.64 347.97 214.64Q347.38 214.64 346.87 214.20Q346.35 213.75 346.35 213.02L346.35 213.02Q346.35 212.43 347.02 211.84L347.02 211.84Q350.47 208.53 357.24 208.53L357.24 208.53Q365.04 208.53 367.25 213.75L367.25 213.75Q367.98 215.59 367.98 218.02L367.98 218.02L367.83 235.01Q367.83 235.97 367.17 236.49Q366.51 237 365.70 237Q364.89 237 364.23 236.56Q363.57 236.12 363.57 235.09L363.57 235.09L363.57 232.44Q361.80 236.26 357.24 237.22L357.24 237.22Q355.84 237.59 354.08 237.59Q352.31 237.59 350.58 237.07Q348.86 236.56 347.53 235.46L347.53 235.46Q344.81 233.17 344.81 229.28L344.81 229.28Q344.81 220.01 360.48 220.01ZM363.57 225.82L363.57 223.32Q362.39 223.46 360.85 223.46Q359.30 223.46 357.68 223.50Q356.06 223.54 354.59 223.87Q353.12 224.20 351.95 224.86L351.95 224.86Q349.44 226.19 349.30 229.20L349.30 229.20Q349.30 231.56 351.21 232.88L351.21 232.88Q352.68 234.06 355.40 234.13L355.40 234.13Q358.71 234.13 361.14 232.00L361.14 232.00Q363.35 229.94 363.57 225.82L363.57 225.82ZM374.53 223.02L374.53 223.02Q374.53 216.92 377.99 212.87L377.99 212.87Q381.74 208.53 387.77 208.53L387.77 208.53Q392.92 208.53 395.64 210.66L395.64 210.66Q396.45 211.25 396.45 212.06Q396.45 212.87 396.01 213.35Q395.57 213.83 394.98 213.83Q394.39 213.83 394.10 213.61L394.10 213.61Q391.30 211.99 388.21 212.06L388.21 212.06Q384.17 212.06 381.89 215.08L381.89 215.08Q379.31 218.17 379.31 223.02L379.31 223.02Q379.31 227.51 381.15 230.60L381.15 230.60Q383.36 234.13 388.21 234.13L388.21 234.13Q390.86 234.13 394.69 232.29L394.69 232.29Q395.72 231.70 396.45 232.59L396.45 232.59Q396.89 233.03 396.89 233.80Q396.89 234.57 395.94 235.34Q394.98 236.12 393.66 236.56L393.66 236.56Q390.42 237.66 387.40 237.63Q384.39 237.59 381.96 236.49Q379.53 235.38 377.91 233.25L377.91 233.25Q374.53 229.20 374.53 223.02ZM408.96 199.34L408.96 199.34Q408.96 200.51 408.15 201.25Q407.34 201.98 405.87 201.98Q404.40 201.98 403.59 201.25Q402.78 200.51 402.78 199.34L402.78 199.34Q402.78 198.31 403.59 197.57Q404.40 196.83 405.90 196.83Q407.41 196.83 408.18 197.57Q408.96 198.31 408.96 199.34ZM403.66 234.79L403.66 211.40Q403.66 210.30 404.40 209.67Q405.13 209.05 405.72 209.05Q406.31 209.05 406.68 209.23Q407.04 209.41 407.41 209.78L407.41 209.78Q408.22 210.30 408.22 211.40L408.22 211.40L408.22 234.79Q408.22 235.90 407.49 236.45Q406.75 237 405.87 237L405.87 237Q404.98 237 404.32 236.45Q403.66 235.90 403.66 234.79L403.66 234.79ZM416.90 234.79L416.90 199.19Q416.90 198.01 417.64 197.50Q418.37 196.98 418.96 196.98Q419.55 196.98 419.92 197.06Q420.29 197.13 420.65 197.50L420.65 197.50Q421.46 198.01 421.46 199.19L421.46 199.19L421.46 234.79Q421.46 235.90 420.73 236.45Q419.99 237 419.11 237L419.11 237Q418.23 237 417.56 236.45Q416.90 235.90 416.90 234.79L416.90 234.79Z" data-element="company-name" data-text-path="" data-text="CuentaFacil" data-font-family="Mallanna" fill="#000000" fill-opacity="1"></path><path d="M41.97 286.37Q41.97 287.49 42.51 288.33Q43.06 289.16 43.84 289.72Q44.61 290.29 46.03 291.15L46.03 291.15Q47.52 292.04 48.36 292.65Q49.19 293.25 49.78 294.19Q50.37 295.12 50.37 296.42L50.37 296.42Q50.37 297.80 49.68 298.93Q48.99 300.05 47.65 300.70Q46.31 301.35 44.44 301.35L44.44 301.35Q42.22 301.35 40.38 300.34L40.38 300.34Q40.24 300.25 40.19 300.14Q40.15 300.02 40.12 299.79L40.12 299.79L39.75 295.87Q39.72 295.76 39.88 295.73Q40.04 295.70 40.06 295.82L40.06 295.82Q40.53 297.89 41.78 299.39Q43.03 300.88 45.10 300.88L45.10 300.88Q46.54 300.88 47.54 300.09Q48.53 299.30 48.53 297.57L48.53 297.57Q48.53 296.28 47.96 295.33Q47.38 294.38 46.56 293.76Q45.74 293.14 44.33 292.30L44.33 292.30Q42.94 291.47 42.15 290.86Q41.36 290.26 40.81 289.34Q40.27 288.41 40.27 287.18L40.27 287.18Q40.27 285.74 41.03 284.71Q41.79 283.69 43.02 283.19Q44.24 282.68 45.62 282.68L45.62 282.68Q47.32 282.68 48.99 283.37L48.99 283.37Q49.42 283.52 49.42 283.86L49.42 283.86L49.63 287.18Q49.63 287.29 49.48 287.29Q49.34 287.29 49.31 287.18L49.31 287.18Q49.08 285.68 48.07 284.40Q47.06 283.12 45.16 283.12L45.16 283.12Q43.55 283.12 42.76 284.05Q41.97 284.99 41.97 286.37L41.97 286.37ZM57.06 298.67Q57.06 299.56 57.21 299.96Q57.37 300.37 57.81 300.51Q58.24 300.65 59.22 300.65L59.22 300.65Q59.27 300.65 59.27 300.83Q59.27 301 59.22 301L59.22 301Q58.41 301 57.95 300.97L57.95 300.97L56.13 300.94L54.44 300.97Q53.95 301 53.11 301L53.11 301Q53.05 301 53.05 300.83Q53.05 300.65 53.11 300.65L53.11 300.65Q54.09 300.65 54.52 300.51Q54.95 300.37 55.11 299.96Q55.27 299.56 55.27 298.67L55.27 298.67L55.27 289.85Q55.27 288.99 55.11 288.59Q54.95 288.18 54.51 288.03Q54.06 287.87 53.11 287.87L53.11 287.87Q53.05 287.87 53.05 287.69Q53.05 287.52 53.11 287.52L53.11 287.52L54.44 287.55Q55.47 287.61 56.13 287.61L56.13 287.61Q56.88 287.61 57.98 287.55L57.98 287.55L59.22 287.52Q59.27 287.52 59.27 287.69Q59.27 287.87 59.22 287.87L59.22 287.87Q58.29 287.87 57.83 288.04Q57.37 288.21 57.21 288.63Q57.06 289.05 57.06 289.91L57.06 289.91L57.06 298.67ZM85.63 300.65Q85.68 300.65 85.68 300.83Q85.68 301 85.63 301L85.63 301Q84.85 301 84.42 300.97L84.42 300.97L82.60 300.94L80.85 300.97Q80.38 301 79.61 301L79.61 301Q79.55 301 79.55 300.83Q79.55 300.65 79.61 300.65L79.61 300.65Q80.56 300.65 81.00 300.51Q81.45 300.37 81.61 299.95Q81.77 299.53 81.77 298.67L81.77 298.67L81.77 292.50Q81.77 290.20 80.99 289.08Q80.21 287.95 78.63 287.95L78.63 287.95Q76.21 287.95 74.28 290.32L74.28 290.32Q74.39 290.86 74.39 291.64L74.39 291.64L74.39 298.67Q74.39 299.53 74.55 299.95Q74.71 300.37 75.14 300.51Q75.57 300.65 76.53 300.65L76.53 300.65Q76.61 300.65 76.61 300.83Q76.61 301 76.53 301L76.53 301Q75.78 301 75.34 300.97L75.34 300.97L73.50 300.94L71.74 300.97Q71.31 301 70.53 301L70.53 301Q70.48 301 70.48 300.83Q70.48 300.65 70.53 300.65L70.53 300.65Q71.49 300.65 71.93 300.51Q72.38 300.37 72.54 299.95Q72.69 299.53 72.69 298.67L72.69 298.67L72.69 292.50Q72.69 290.20 71.92 289.08Q71.14 287.95 69.56 287.95L69.56 287.95Q67.22 287.95 65.29 290.20L65.29 290.20L65.29 298.67Q65.29 299.56 65.45 299.96Q65.61 300.37 66.04 300.51Q66.47 300.65 67.45 300.65L67.45 300.65Q67.51 300.65 67.51 300.83Q67.51 301 67.45 301L67.45 301Q66.68 301 66.24 300.97L66.24 300.97L64.40 300.94L62.67 300.97Q62.21 301 61.46 301L61.46 301Q61.38 301 61.38 300.83Q61.38 300.65 61.46 300.65L61.46 300.65Q62.38 300.65 62.82 300.51Q63.25 300.37 63.41 299.95Q63.57 299.53 63.57 298.67L63.57 298.67L63.57 289.85Q63.57 288.99 63.41 288.59Q63.25 288.18 62.79 288.03Q62.33 287.87 61.38 287.87L61.38 287.87Q61.32 287.87 61.32 287.69Q61.32 287.52 61.38 287.52L61.38 287.52L63.48 287.55L64.75 287.52Q65.12 287.52 65.21 287.62Q65.29 287.72 65.29 288.07L65.29 288.07L65.29 289.71Q66.53 288.39 67.76 287.77Q68.98 287.15 70.33 287.15L70.33 287.15Q71.83 287.15 72.82 287.84Q73.82 288.53 74.19 289.91L74.19 289.91Q75.49 288.44 76.76 287.80Q78.02 287.15 79.41 287.15L79.41 287.15Q81.33 287.15 82.40 288.28Q83.47 289.42 83.47 291.64L83.47 291.64L83.47 298.67Q83.47 299.53 83.62 299.95Q83.78 300.37 84.23 300.51Q84.68 300.65 85.63 300.65L85.63 300.65ZM90.87 298.55Q90.87 299.47 91.07 299.89Q91.27 300.31 91.86 300.48Q92.45 300.65 93.72 300.65L93.72 300.65Q93.81 300.65 93.81 300.83Q93.81 301 93.72 301L93.72 301Q92.68 301 92.13 300.97L92.13 300.97L90.00 300.94L88.30 300.97Q87.81 301 86.98 301L86.98 301Q86.92 301 86.92 300.83Q86.92 300.65 86.98 300.65L86.98 300.65Q87.93 300.65 88.36 300.51Q88.79 300.37 88.95 299.95Q89.11 299.53 89.11 298.67L89.11 298.67L89.11 289.85Q89.11 288.99 88.95 288.59Q88.79 288.18 88.35 288.03Q87.90 287.87 86.98 287.87L86.98 287.87Q86.92 287.87 86.92 287.69Q86.92 287.52 86.98 287.52L86.98 287.52L88.28 287.55Q89.37 287.61 89.97 287.61L89.97 287.61Q90.46 287.61 90.91 287.58Q91.36 287.55 91.67 287.52L91.67 287.52Q92.57 287.44 93.34 287.44L93.34 287.44Q98.10 287.44 98.10 290.95L98.10 290.95Q98.10 292.33 97.39 293.27Q96.69 294.20 95.61 294.66Q94.53 295.12 93.37 295.12L93.37 295.12Q92.60 295.12 92.11 295.01L92.11 295.01Q92.05 295.01 92.05 294.87L92.05 294.87Q92.05 294.64 92.19 294.64L92.19 294.64Q92.62 294.72 93.09 294.72L93.09 294.72Q94.35 294.72 95.23 293.90Q96.11 293.08 96.11 291.52L96.11 291.52Q96.11 289.71 95.17 288.77Q94.24 287.84 92.65 287.84L92.65 287.84Q91.93 287.84 91.57 287.95Q91.21 288.07 91.04 288.50Q90.87 288.93 90.87 289.91L90.87 289.91L90.87 298.55ZM104.17 289.88L104.17 298.55Q104.17 299.39 104.33 299.79Q104.49 300.19 104.94 300.37Q105.38 300.54 106.28 300.54L106.28 300.54L108.18 300.54Q109.70 300.54 110.61 299.59Q111.52 298.64 111.83 296.97L111.83 296.97Q111.83 296.91 111.95 296.91L111.95 296.91Q112.04 296.91 112.11 296.94Q112.18 296.97 112.18 297.03L112.18 297.03Q111.98 298.35 111.98 300.57L111.98 300.57Q111.98 300.80 111.88 300.90Q111.78 301 111.55 301L111.55 301L100.29 301Q100.23 301 100.23 300.83Q100.23 300.65 100.29 300.65L100.29 300.65Q101.24 300.65 101.67 300.51Q102.10 300.37 102.24 299.95Q102.39 299.53 102.39 298.67L102.39 298.67L102.39 289.85Q102.39 288.99 102.23 288.59Q102.07 288.18 101.64 288.03Q101.21 287.87 100.29 287.87L100.29 287.87Q100.23 287.87 100.23 287.69Q100.23 287.52 100.29 287.52L100.29 287.52L101.58 287.55Q102.68 287.61 103.28 287.61L103.28 287.61Q104.00 287.61 105.09 287.55L105.09 287.55L106.30 287.52Q106.39 287.52 106.39 287.69Q106.39 287.87 106.30 287.87L106.30 287.87Q105.35 287.87 104.92 288.03Q104.49 288.18 104.33 288.60Q104.17 289.02 104.17 289.88L104.17 289.88ZM124.33 299.44L124.36 299.44Q124.45 299.44 124.52 299.55Q124.59 299.65 124.53 299.73L124.53 299.73Q122.49 301.35 120.07 301.35L120.07 301.35Q118.03 301.35 116.57 300.38Q115.12 299.42 114.38 297.86Q113.65 296.31 113.65 294.52L113.65 294.52Q113.65 292.53 114.60 290.85Q115.55 289.16 117.13 288.18Q118.72 287.20 120.59 287.20L120.59 287.20Q122.52 287.20 123.50 288.27Q124.48 289.34 124.48 291.15L124.48 291.15Q124.48 291.44 124.41 291.57Q124.33 291.70 124.13 291.70L124.13 291.70L115.75 291.73Q115.58 292.53 115.58 293.51L115.58 293.51Q115.58 295.47 116.24 297.04Q116.90 298.61 118.16 299.50Q119.41 300.40 121.11 300.40L121.11 300.40Q123.04 300.40 124.33 299.44L124.33 299.44ZM119.70 287.78Q118.31 287.78 117.29 288.72Q116.27 289.65 115.84 291.29L115.84 291.29L122.46 291.18Q122.49 289.54 121.78 288.66Q121.08 287.78 119.70 287.78L119.70 287.78ZM143.95 282.68Q145.33 282.68 146.74 282.94Q148.15 283.20 148.99 283.69L148.99 283.69Q149.25 283.81 149.32 283.94Q149.39 284.07 149.42 284.38L149.42 284.38L149.73 287.61Q149.73 287.69 149.59 287.71Q149.45 287.72 149.42 287.64L149.42 287.64Q148.78 285.42 147.07 284.37Q145.36 283.32 142.82 283.32L142.82 283.32Q140.63 283.32 138.99 284.28Q137.35 285.25 136.46 287.00Q135.57 288.76 135.57 291.06L135.57 291.06Q135.57 293.74 136.67 296.02Q137.78 298.29 139.67 299.62Q141.56 300.94 143.74 300.94L143.74 300.94Q145.82 300.94 147.34 299.80Q148.87 298.67 149.68 296.31L149.68 296.31Q149.68 296.22 149.79 296.22L149.79 296.22Q149.88 296.22 149.95 296.25Q150.02 296.28 150.02 296.33L150.02 296.33L149.62 299.59Q149.56 299.93 149.49 300.04Q149.42 300.14 149.16 300.25L149.16 300.25Q146.57 301.35 143.69 301.35L143.69 301.35Q140.23 301.35 137.91 299.95Q135.59 298.55 134.50 296.39Q133.41 294.23 133.41 291.84L133.41 291.84Q133.41 289.19 134.87 287.09Q136.34 284.99 138.76 283.84Q141.18 282.68 143.95 282.68L143.95 282.68ZM167.99 287.52Q168.05 287.52 168.05 287.69Q168.05 287.87 167.99 287.87L167.99 287.87Q167.04 287.87 166.60 288.03Q166.15 288.18 165.98 288.59Q165.81 288.99 165.81 289.85L165.81 289.85L165.81 298.67Q165.81 299.53 165.96 299.95Q166.12 300.37 166.55 300.51Q166.99 300.65 167.91 300.65L167.91 300.65Q167.99 300.65 167.99 300.83Q167.99 301 167.91 301L167.91 301L166.04 300.97L164.60 301Q164.25 301 164.16 300.91Q164.08 300.83 164.08 300.45L164.08 300.45L164.08 298.78Q162.75 300.11 161.41 300.73Q160.07 301.35 158.61 301.35L158.61 301.35Q156.56 301.35 155.22 300.27Q153.88 299.19 153.88 297.28L153.88 297.28L153.88 289.85Q153.88 288.99 153.75 288.59Q153.62 288.18 153.26 288.03Q152.90 287.87 152.13 287.87L152.13 287.87Q152.07 287.87 152.07 287.69Q152.07 287.52 152.13 287.52L152.13 287.52L153.25 287.55Q154.23 287.61 154.75 287.61L154.75 287.61Q155.47 287.61 156.56 287.55L156.56 287.55L157.74 287.52Q157.80 287.52 157.80 287.69Q157.80 287.87 157.74 287.87L157.74 287.87Q156.82 287.87 156.37 288.04Q155.93 288.21 155.77 288.63Q155.61 289.05 155.61 289.91L155.61 289.91L155.61 296.31Q155.61 300.57 159.38 300.57L159.38 300.57Q160.65 300.57 161.76 300.02Q162.87 299.47 164.08 298.21L164.08 298.21L164.08 289.91Q164.08 289.05 163.93 288.63Q163.79 288.21 163.36 288.04Q162.93 287.87 162.00 287.87L162.00 287.87Q161.95 287.87 161.95 287.69Q161.95 287.52 162.00 287.52L162.00 287.52L163.27 287.55Q164.37 287.61 165.03 287.61L165.03 287.61Q165.63 287.61 166.73 287.55L166.73 287.55L167.99 287.52ZM180.72 299.44L180.75 299.44Q180.84 299.44 180.91 299.55Q180.98 299.65 180.93 299.73L180.93 299.73Q178.88 301.35 176.46 301.35L176.46 301.35Q174.42 301.35 172.96 300.38Q171.51 299.42 170.77 297.86Q170.04 296.31 170.04 294.52L170.04 294.52Q170.04 292.53 170.99 290.85Q171.94 289.16 173.52 288.18Q175.11 287.20 176.98 287.20L176.98 287.20Q178.91 287.20 179.89 288.27Q180.87 289.34 180.87 291.15L180.87 291.15Q180.87 291.44 180.80 291.57Q180.72 291.70 180.52 291.70L180.52 291.70L172.14 291.73Q171.97 292.53 171.97 293.51L171.97 293.51Q171.97 295.47 172.63 297.04Q173.29 298.61 174.55 299.50Q175.80 300.40 177.50 300.40L177.50 300.40Q179.43 300.40 180.72 299.44L180.72 299.44ZM176.09 287.78Q174.70 287.78 173.68 288.72Q172.66 289.65 172.23 291.29L172.23 291.29L178.85 291.18Q178.88 289.54 178.17 288.66Q177.47 287.78 176.09 287.78L176.09 287.78ZM198.49 300.65Q198.55 300.65 198.55 300.83Q198.55 301 198.49 301L198.49 301Q197.77 301 197.37 300.97L197.37 300.97L195.87 300.94L194.06 300.97Q193.63 301 192.91 301L192.91 301Q192.85 301 192.85 300.83Q192.85 300.65 192.91 300.65L192.91 300.65Q193.83 300.65 194.27 300.48Q194.72 300.31 194.88 299.89Q195.04 299.47 195.04 298.61L195.04 298.61L195.04 292.88Q195.04 290.11 194.07 289.03Q193.11 287.95 191.29 287.95L191.29 287.95Q190.00 287.95 188.89 288.49Q187.78 289.02 186.54 290.34L186.54 290.34L186.54 298.61Q186.54 299.47 186.70 299.89Q186.86 300.31 187.29 300.48Q187.72 300.65 188.61 300.65L188.61 300.65Q188.70 300.65 188.70 300.83Q188.70 301 188.61 301L188.61 301Q187.84 301 187.38 300.97L187.38 300.97L185.62 300.94L183.92 300.97Q183.46 301 182.65 301L182.65 301Q182.60 301 182.60 300.83Q182.60 300.65 182.65 300.65L182.65 300.65Q183.57 300.65 184.02 300.50Q184.47 300.34 184.64 299.93Q184.81 299.53 184.81 298.67L184.81 298.67L184.81 289.85Q184.81 288.99 184.65 288.59Q184.50 288.18 184.06 288.03Q183.63 287.87 182.74 287.87L182.74 287.87Q182.65 287.87 182.65 287.69Q182.65 287.52 182.74 287.52L182.74 287.52L184.61 287.55L186.02 287.52Q186.37 287.52 186.45 287.62Q186.54 287.72 186.54 288.07L186.54 288.07L186.54 289.77Q187.89 288.41 189.22 287.80Q190.54 287.18 192.04 287.18L192.04 287.18Q194.17 287.18 195.47 288.34Q196.77 289.51 196.77 291.93L196.77 291.93L196.77 298.67Q196.77 299.53 196.89 299.95Q197.02 300.37 197.38 300.51Q197.74 300.65 198.49 300.65L198.49 300.65ZM209.03 299.62L209.09 299.59Q209.18 299.59 209.24 299.72Q209.29 299.85 209.21 299.91L209.21 299.91Q208.03 300.68 207.15 301.01Q206.27 301.35 205.29 301.35L205.29 301.35Q203.65 301.35 202.57 300.42Q201.49 299.50 201.49 297.37L201.49 297.37L201.49 289.83Q201.49 289.11 201.39 288.80Q201.29 288.50 200.98 288.40Q200.68 288.30 199.99 288.30L199.99 288.30Q199.90 288.30 199.90 288.11Q199.90 287.92 199.99 287.92L199.99 287.92Q201.14 287.92 201.93 287.32Q202.73 286.72 202.78 285.76L202.78 285.76Q202.78 285.68 202.99 285.68L202.99 285.68Q203.22 285.68 203.22 285.76L203.22 285.76L203.22 287.87Q205.58 287.84 208.43 287.61L208.43 287.61Q208.52 287.61 208.57 287.78Q208.63 287.95 208.63 288.24L208.63 288.24Q208.63 288.50 208.53 288.79Q208.43 289.08 208.34 289.05L208.34 289.05Q206.07 288.44 203.22 288.39L203.22 288.39L203.22 296.45Q203.22 298.47 203.99 299.43Q204.77 300.40 206.36 300.40L206.36 300.40Q207.88 300.40 209.03 299.62L209.03 299.62ZM223.23 299.42L223.29 299.42Q223.41 299.42 223.45 299.55Q223.49 299.68 223.38 299.73L223.38 299.73L220.35 301.17Q220.24 301.23 220.15 301.23L220.15 301.23Q219.69 301.23 219.24 300.67Q218.80 300.11 218.68 299.13L218.68 299.13L216.78 300.19Q215.77 300.74 215.11 300.97Q214.45 301.20 213.87 301.20L213.87 301.20Q212.86 301.20 212.17 300.60Q211.48 299.99 211.48 299.21L211.48 299.21Q211.48 298.12 212.20 297.46Q212.92 296.80 214.88 296.08L214.88 296.08L218.65 294.69L218.65 291.29Q218.65 289.54 218.15 288.73Q217.65 287.92 216.58 287.92L216.58 287.92Q215.25 287.92 214.64 288.75Q214.02 289.57 213.67 290.89L213.67 290.89Q213.53 291.38 213.28 291.68Q213.04 291.99 212.55 291.99L212.55 291.99Q212.09 291.99 211.80 291.71Q211.51 291.44 211.51 291.04L211.51 291.04Q211.51 290.32 212.53 289.42Q213.56 288.53 215.02 287.90Q216.49 287.26 217.67 287.26L217.67 287.26Q218.91 287.26 219.66 288.05Q220.41 288.85 220.41 290.43L220.41 290.43L220.41 297.63Q220.41 299.79 221.82 299.79L221.82 299.79Q222.40 299.79 223.23 299.42L223.23 299.42ZM216.67 299.73L218.65 298.72L218.65 298.61L218.65 295.07L215.49 296.31Q214.42 296.71 214.00 297.23Q213.58 297.75 213.58 298.47L213.58 298.47Q213.58 299.19 214.05 299.68Q214.51 300.16 215.14 300.16L215.14 300.16Q215.83 300.16 216.67 299.73L216.67 299.73ZM226.34 298.96Q227.21 298.96 227.70 299.60Q228.19 300.25 228.19 301.46L228.19 301.46Q228.19 302.61 227.67 303.61Q227.15 304.60 226.14 305.58L226.14 305.58Q226.11 305.61 226.05 305.61L226.05 305.61Q225.97 305.61 225.91 305.52Q225.85 305.44 225.91 305.38L225.91 305.38Q227.32 303.94 227.32 301.98L227.32 301.98Q227.32 301.17 227.03 300.80L227.03 300.80Q226.77 301.23 226.14 301.23L226.14 301.23Q225.62 301.23 225.32 300.91Q225.02 300.60 225.02 300.11L225.02 300.11Q225.02 298.96 226.34 298.96L226.34 298.96ZM249.61 283.26L249.67 286.80Q249.67 286.89 249.53 286.90Q249.38 286.92 249.35 286.83L249.35 286.83Q249.27 285.30 248.43 284.45Q247.60 283.60 246.21 283.60L246.21 283.60L244.46 283.60Q243.48 283.60 242.99 283.75Q242.50 283.89 242.31 284.27Q242.13 284.64 242.13 285.36L242.13 285.36L242.13 291.67L245.03 291.67Q246.56 291.67 247.21 291.19Q247.86 290.72 247.86 289.65L247.86 289.65Q247.86 289.60 248.03 289.60Q248.20 289.60 248.20 289.65L248.20 289.65L248.17 291.99Q248.17 292.82 248.20 293.25L248.20 293.25L248.23 294.64Q248.23 294.69 248.06 294.69Q247.89 294.69 247.89 294.64L247.89 294.64Q247.89 293.37 247.21 292.82Q246.53 292.27 244.95 292.27L244.95 292.27L242.13 292.27L242.13 298.55Q242.13 299.47 242.37 299.89Q242.61 300.31 243.33 300.48Q244.05 300.65 245.61 300.65L245.61 300.65Q245.70 300.65 245.70 300.83Q245.70 301 245.61 301L245.61 301Q244.43 301 243.77 300.97L243.77 300.97L241.17 300.94L239.22 300.97Q238.70 301 237.75 301L237.75 301Q237.69 301 237.69 300.83Q237.69 300.65 237.75 300.65L237.75 300.65Q238.84 300.65 239.36 300.51Q239.88 300.37 240.07 299.95Q240.25 299.53 240.25 298.67L240.25 298.67L240.25 285.33Q240.25 284.47 240.07 284.07Q239.88 283.66 239.37 283.50Q238.87 283.35 237.78 283.35L237.78 283.35Q237.72 283.35 237.72 283.17Q237.72 283 237.78 283L237.78 283L249.35 283Q249.61 283 249.61 283.26L249.61 283.26ZM267.93 287.52Q267.99 287.52 267.99 287.69Q267.99 287.87 267.93 287.87L267.93 287.87Q266.98 287.87 266.53 288.03Q266.09 288.18 265.91 288.59Q265.74 288.99 265.74 289.85L265.74 289.85L265.74 298.67Q265.74 299.53 265.90 299.95Q266.06 300.37 266.49 300.51Q266.92 300.65 267.84 300.65L267.84 300.65Q267.93 300.65 267.93 300.83Q267.93 301 267.84 301L267.84 301L265.97 300.97L264.53 301Q264.19 301 264.10 300.91Q264.01 300.83 264.01 300.45L264.01 300.45L264.01 298.78Q262.69 300.11 261.35 300.73Q260.01 301.35 258.54 301.35L258.54 301.35Q256.50 301.35 255.16 300.27Q253.82 299.19 253.82 297.28L253.82 297.28L253.82 289.85Q253.82 288.99 253.69 288.59Q253.56 288.18 253.20 288.03Q252.84 287.87 252.06 287.87L252.06 287.87Q252.00 287.87 252.00 287.69Q252.00 287.52 252.06 287.52L252.06 287.52L253.18 287.55Q254.16 287.61 254.68 287.61L254.68 287.61Q255.40 287.61 256.50 287.55L256.50 287.55L257.68 287.52Q257.73 287.52 257.73 287.69Q257.73 287.87 257.68 287.87L257.68 287.87Q256.76 287.87 256.31 288.04Q255.86 288.21 255.70 288.63Q255.55 289.05 255.55 289.91L255.55 289.91L255.55 296.31Q255.55 300.57 259.32 300.57L259.32 300.57Q260.59 300.57 261.69 300.02Q262.80 299.47 264.01 298.21L264.01 298.21L264.01 289.91Q264.01 289.05 263.87 288.63Q263.73 288.21 263.29 288.04Q262.86 287.87 261.94 287.87L261.94 287.87Q261.88 287.87 261.88 287.69Q261.88 287.52 261.94 287.52L261.94 287.52L263.21 287.55Q264.30 287.61 264.96 287.61L264.96 287.61Q265.57 287.61 266.66 287.55L266.66 287.55L267.93 287.52ZM280.66 299.44L280.69 299.44Q280.77 299.44 280.85 299.55Q280.92 299.65 280.86 299.73L280.86 299.73Q278.82 301.35 276.40 301.35L276.40 301.35Q274.35 301.35 272.90 300.38Q271.44 299.42 270.71 297.86Q269.97 296.31 269.97 294.52L269.97 294.52Q269.97 292.53 270.93 290.85Q271.88 289.16 273.46 288.18Q275.04 287.20 276.92 287.20L276.92 287.20Q278.85 287.20 279.82 288.27Q280.80 289.34 280.80 291.15L280.80 291.15Q280.80 291.44 280.73 291.57Q280.66 291.70 280.46 291.70L280.46 291.70L272.08 291.73Q271.90 292.53 271.90 293.51L271.90 293.51Q271.90 295.47 272.57 297.04Q273.23 298.61 274.48 299.50Q275.73 300.40 277.43 300.40L277.43 300.40Q279.36 300.40 280.66 299.44L280.66 299.44ZM276.02 287.78Q274.64 287.78 273.62 288.72Q272.60 289.65 272.16 291.29L272.16 291.29L278.79 291.18Q278.82 289.54 278.11 288.66Q277.41 287.78 276.02 287.78L276.02 287.78ZM297.22 300.65Q297.28 300.65 297.28 300.83Q297.28 301 297.22 301L297.22 301L293.85 301Q293.33 301 292.02 299.27Q290.71 297.54 288.87 294.49L288.87 294.49Q288.32 294.61 287.63 294.61L287.63 294.61Q286.91 294.61 286.53 294.55L286.53 294.55L286.53 298.67Q286.53 299.56 286.68 299.96Q286.82 300.37 287.25 300.51Q287.69 300.65 288.67 300.65L288.67 300.65Q288.72 300.65 288.72 300.83Q288.72 301 288.67 301L288.67 301Q287.86 301 287.43 300.97L287.43 300.97L285.61 300.94L283.91 300.97Q283.42 301 282.59 301L282.59 301Q282.53 301 282.53 300.83Q282.53 300.65 282.59 300.65L282.59 300.65Q283.54 300.65 283.99 300.51Q284.43 300.37 284.61 299.95Q284.78 299.53 284.78 298.67L284.78 298.67L284.78 289.85Q284.78 288.99 284.62 288.59Q284.46 288.18 284.01 288.03Q283.57 287.87 282.62 287.87L282.62 287.87Q282.56 287.87 282.56 287.69Q282.56 287.52 282.62 287.52L282.62 287.52L283.94 287.55Q284.98 287.61 285.61 287.61L285.61 287.61Q286.13 287.61 286.58 287.58Q287.02 287.55 287.34 287.52L287.34 287.52Q288.23 287.44 289.04 287.44L289.04 287.44Q290.91 287.44 291.89 288.16Q292.87 288.88 292.87 290.23L292.87 290.23Q292.87 291.38 292.21 292.36Q291.55 293.34 290.42 293.94L290.42 293.94Q292.04 296.59 293.14 298.02Q294.25 299.44 295.19 300.05Q296.13 300.65 297.22 300.65L297.22 300.65ZM286.53 294.03Q287.05 294.12 287.83 294.12L287.83 294.12Q289.62 294.12 290.32 293.32Q291.03 292.53 291.03 291.01L291.03 291.01Q291.03 287.84 288.29 287.84L288.29 287.84Q287.20 287.84 286.87 288.30Q286.53 288.76 286.53 289.91L286.53 289.91L286.53 294.03ZM307.13 299.62L307.18 299.59Q307.27 299.59 307.33 299.72Q307.39 299.85 307.30 299.91L307.30 299.91Q306.12 300.68 305.24 301.01Q304.36 301.35 303.38 301.35L303.38 301.35Q301.74 301.35 300.66 300.42Q299.58 299.50 299.58 297.37L299.58 297.37L299.58 289.83Q299.58 289.11 299.48 288.80Q299.38 288.50 299.08 288.40Q298.77 288.30 298.08 288.30L298.08 288.30Q298.00 288.30 298.00 288.11Q298.00 287.92 298.08 287.92L298.08 287.92Q299.24 287.92 300.03 287.32Q300.82 286.72 300.88 285.76L300.88 285.76Q300.88 285.68 301.08 285.68L301.08 285.68Q301.31 285.68 301.31 285.76L301.31 285.76L301.31 287.87Q303.67 287.84 306.52 287.61L306.52 287.61Q306.61 287.61 306.67 287.78Q306.72 287.95 306.72 288.24L306.72 288.24Q306.72 288.50 306.62 288.79Q306.52 289.08 306.44 289.05L306.44 289.05Q304.16 288.44 301.31 288.39L301.31 288.39L301.31 296.45Q301.31 298.47 302.09 299.43Q302.86 300.40 304.45 300.40L304.45 300.40Q305.97 300.40 307.13 299.62L307.13 299.62ZM319.45 299.44L319.48 299.44Q319.57 299.44 319.64 299.55Q319.71 299.65 319.65 299.73L319.65 299.73Q317.61 301.35 315.19 301.35L315.19 301.35Q313.15 301.35 311.69 300.38Q310.24 299.42 309.50 297.86Q308.77 296.31 308.77 294.52L308.77 294.52Q308.77 292.53 309.72 290.85Q310.67 289.16 312.25 288.18Q313.84 287.20 315.71 287.20L315.71 287.20Q317.64 287.20 318.62 288.27Q319.60 289.34 319.60 291.15L319.60 291.15Q319.60 291.44 319.53 291.57Q319.45 291.70 319.25 291.70L319.25 291.70L310.87 291.73Q310.70 292.53 310.70 293.51L310.70 293.51Q310.70 295.47 311.36 297.04Q312.02 298.61 313.28 299.50Q314.53 300.40 316.23 300.40L316.23 300.40Q318.16 300.40 319.45 299.44L319.45 299.44ZM314.82 287.78Q313.43 287.78 312.41 288.72Q311.39 289.65 310.96 291.29L310.96 291.29L317.58 291.18Q317.61 289.54 316.90 288.66Q316.20 287.78 314.82 287.78L314.82 287.78ZM338.78 301.35Q335.64 301.35 333.31 300.14Q330.97 298.93 329.75 296.85Q328.53 294.78 328.53 292.22L328.53 292.22Q328.53 289.42 329.95 287.26Q331.38 285.10 333.87 283.89Q336.36 282.68 339.50 282.68L339.50 282.68Q340.91 282.68 342.19 282.96Q343.47 283.23 344.28 283.72L344.28 283.72Q344.51 283.86 344.55 283.96Q344.60 284.07 344.62 284.38L344.62 284.38L344.97 287.61Q344.97 287.69 344.81 287.71Q344.65 287.72 344.62 287.64L344.62 287.64Q343.99 285.56 342.33 284.44Q340.68 283.32 338.26 283.32L338.26 283.32Q334.63 283.32 332.64 285.42Q330.66 287.52 330.66 291.18L330.66 291.18Q330.66 293.97 331.79 296.18Q332.93 298.38 334.95 299.62Q336.96 300.86 339.47 300.86L339.47 300.86Q340.94 300.86 341.74 300.60Q342.55 300.34 342.93 299.59Q343.30 298.84 343.30 297.37L343.30 297.37Q343.30 295.87 343.11 295.28Q342.93 294.69 342.28 294.49Q341.63 294.29 340.05 294.29L340.05 294.29Q339.87 294.29 339.87 294.06L339.87 294.06Q339.87 293.97 339.92 293.90Q339.96 293.83 340.02 293.83L340.02 293.83Q342.26 293.97 343.65 293.97L343.65 293.97Q345.00 293.97 346.47 293.89L346.47 293.89Q346.53 293.89 346.57 293.96Q346.61 294.03 346.61 294.09L346.61 294.09Q346.61 294.29 346.47 294.29L346.47 294.29Q345.78 294.26 345.49 294.48Q345.20 294.69 345.11 295.36Q345.03 296.02 345.03 297.66L345.03 297.66Q345.03 298.96 345.13 299.50Q345.23 300.05 345.23 300.19L345.23 300.19Q345.23 300.37 345.17 300.42Q345.11 300.48 344.91 300.54L344.91 300.54Q341.43 301.35 338.78 301.35L338.78 301.35ZM359.40 299.44L359.43 299.44Q359.51 299.44 359.59 299.55Q359.66 299.65 359.60 299.73L359.60 299.73Q357.56 301.35 355.14 301.35L355.14 301.35Q353.09 301.35 351.64 300.38Q350.18 299.42 349.45 297.86Q348.71 296.31 348.71 294.52L348.71 294.52Q348.71 292.53 349.66 290.85Q350.61 289.16 352.20 288.18Q353.78 287.20 355.65 287.20L355.65 287.20Q357.58 287.20 358.56 288.27Q359.54 289.34 359.54 291.15L359.54 291.15Q359.54 291.44 359.47 291.57Q359.40 291.70 359.20 291.70L359.20 291.70L350.82 291.73Q350.64 292.53 350.64 293.51L350.64 293.51Q350.64 295.47 351.31 297.04Q351.97 298.61 353.22 299.50Q354.47 300.40 356.17 300.40L356.17 300.40Q358.10 300.40 359.40 299.44L359.40 299.44ZM354.76 287.78Q353.38 287.78 352.36 288.72Q351.33 289.65 350.90 291.29L350.90 291.29L357.53 291.18Q357.56 289.54 356.85 288.66Q356.14 287.78 354.76 287.78L354.76 287.78ZM363.72 289.85Q363.72 290.72 364.17 291.37Q364.61 292.01 365.27 292.45Q365.94 292.88 367.03 293.45L367.03 293.45Q368.21 294.09 368.93 294.56Q369.65 295.04 370.14 295.76Q370.63 296.48 370.63 297.49L370.63 297.49Q370.63 298.55 370.04 299.43Q369.45 300.31 368.36 300.83Q367.26 301.35 365.79 301.35L365.79 301.35Q363.69 301.35 362.31 300.34L362.31 300.34Q362.16 300.28 362.12 300.16Q362.08 300.05 362.05 299.79L362.05 299.79L361.76 296.94Q361.73 296.82 361.89 296.80Q362.05 296.77 362.11 296.88L362.11 296.88Q362.51 298.55 363.70 299.72Q364.90 300.88 366.37 300.88L366.37 300.88Q367.38 300.88 368.11 300.29Q368.85 299.70 368.85 298.47L368.85 298.47Q368.85 297.14 367.98 296.31Q367.12 295.47 365.48 294.61L365.48 294.61Q364.32 293.97 363.65 293.50Q362.97 293.02 362.51 292.33Q362.05 291.64 362.05 290.66L362.05 290.66Q362.05 289.02 363.32 288.10Q364.58 287.18 366.40 287.18L366.40 287.18Q367.92 287.18 369.28 287.84L369.28 287.84Q369.54 287.98 369.61 288.05Q369.68 288.13 369.71 288.33L369.71 288.33L369.91 290.83Q369.91 290.95 369.75 290.98Q369.59 291.01 369.57 290.89L369.57 290.89Q369.42 290.17 368.92 289.41Q368.41 288.64 367.62 288.13Q366.83 287.61 365.88 287.61L365.88 287.61Q364.84 287.61 364.28 288.24Q363.72 288.88 363.72 289.85L363.72 289.85ZM381.83 299.62L381.89 299.59Q381.98 299.59 382.04 299.72Q382.09 299.85 382.01 299.91L382.01 299.91Q380.83 300.68 379.95 301.01Q379.07 301.35 378.09 301.35L378.09 301.35Q376.45 301.35 375.37 300.42Q374.29 299.50 374.29 297.37L374.29 297.37L374.29 289.83Q374.29 289.11 374.19 288.80Q374.09 288.50 373.78 288.40Q373.48 288.30 372.79 288.30L372.79 288.30Q372.70 288.30 372.70 288.11Q372.70 287.92 372.79 287.92L372.79 287.92Q373.94 287.92 374.73 287.32Q375.53 286.72 375.58 285.76L375.58 285.76Q375.58 285.68 375.79 285.68L375.79 285.68Q376.02 285.68 376.02 285.76L376.02 285.76L376.02 287.87Q378.38 287.84 381.23 287.61L381.23 287.61Q381.32 287.61 381.37 287.78Q381.43 287.95 381.43 288.24L381.43 288.24Q381.43 288.50 381.33 288.79Q381.23 289.08 381.14 289.05L381.14 289.05Q378.87 288.44 376.02 288.39L376.02 288.39L376.02 296.45Q376.02 298.47 376.79 299.43Q377.57 300.40 379.16 300.40L379.16 300.40Q380.68 300.40 381.83 299.62L381.83 299.62ZM387.57 298.67Q387.57 299.56 387.72 299.96Q387.88 300.37 388.31 300.51Q388.75 300.65 389.73 300.65L389.73 300.65Q389.78 300.65 389.78 300.83Q389.78 301 389.73 301L389.73 301Q388.92 301 388.46 300.97L388.46 300.97L386.64 300.94L384.94 300.97Q384.45 301 383.62 301L383.62 301Q383.56 301 383.56 300.83Q383.56 300.65 383.62 300.65L383.62 300.65Q384.60 300.65 385.03 300.51Q385.46 300.37 385.62 299.96Q385.78 299.56 385.78 298.67L385.78 298.67L385.78 289.85Q385.78 288.99 385.62 288.59Q385.46 288.18 385.02 288.03Q384.57 287.87 383.62 287.87L383.62 287.87Q383.56 287.87 383.56 287.69Q383.56 287.52 383.62 287.52L383.62 287.52L384.94 287.55Q385.98 287.61 386.64 287.61L386.64 287.61Q387.39 287.61 388.49 287.55L388.49 287.55L389.73 287.52Q389.78 287.52 389.78 287.69Q389.78 287.87 389.73 287.87L389.73 287.87Q388.80 287.87 388.34 288.04Q387.88 288.21 387.72 288.63Q387.57 289.05 387.57 289.91L387.57 289.91L387.57 298.67ZM396.38 286.00L396.32 286.02Q396.21 286.02 396.18 285.89Q396.15 285.76 396.23 285.71L396.23 285.71Q397.18 285.19 399.37 283.92L399.37 283.92Q399.89 283.58 400.28 283.35Q400.67 283.12 400.93 282.97L400.93 282.97Q401.04 282.91 401.61 283.10Q402.17 283.29 402.57 283.52Q402.97 283.75 402.77 283.78L402.77 283.78Q400.99 284.21 399.50 284.74Q398.02 285.28 396.38 286.00L396.38 286.00ZM398.80 301.35Q396.78 301.35 395.21 300.40Q393.64 299.44 392.78 297.83Q391.91 296.22 391.91 294.35L391.91 294.35Q391.91 292.10 393.08 290.47Q394.25 288.85 396.05 288.01Q397.85 287.18 399.72 287.18L399.72 287.18Q401.73 287.18 403.28 288.17Q404.82 289.16 405.64 290.75Q406.46 292.33 406.46 294.06L406.46 294.06Q406.46 295.99 405.42 297.67Q404.38 299.36 402.63 300.35Q400.87 301.35 398.80 301.35L398.80 301.35ZM399.55 300.74Q401.79 300.74 403.13 299.16Q404.47 297.57 404.47 294.78L404.47 294.78Q404.47 292.85 403.79 291.27Q403.12 289.68 401.82 288.73Q400.53 287.78 398.74 287.78L398.74 287.78Q396.44 287.78 395.17 289.32Q393.90 290.86 393.90 293.63L393.90 293.63Q393.90 295.61 394.58 297.23Q395.25 298.84 396.54 299.79Q397.82 300.74 399.55 300.74L399.55 300.74ZM424.34 300.65Q424.40 300.65 424.40 300.83Q424.40 301 424.34 301L424.34 301Q423.62 301 423.22 300.97L423.22 300.97L421.72 300.94L419.91 300.97Q419.48 301 418.76 301L418.76 301Q418.70 301 418.70 300.83Q418.70 300.65 418.76 300.65L418.76 300.65Q419.68 300.65 420.12 300.48Q420.57 300.31 420.73 299.89Q420.89 299.47 420.89 298.61L420.89 298.61L420.89 292.88Q420.89 290.11 419.92 289.03Q418.96 287.95 417.14 287.95L417.14 287.95Q415.85 287.95 414.74 288.49Q413.63 289.02 412.39 290.34L412.39 290.34L412.39 298.61Q412.39 299.47 412.55 299.89Q412.71 300.31 413.14 300.48Q413.57 300.65 414.46 300.65L414.46 300.65Q414.55 300.65 414.55 300.83Q414.55 301 414.46 301L414.46 301Q413.69 301 413.23 300.97L413.23 300.97L411.47 300.94L409.77 300.97Q409.31 301 408.50 301L408.50 301Q408.45 301 408.45 300.83Q408.45 300.65 408.50 300.65L408.50 300.65Q409.42 300.65 409.87 300.50Q410.32 300.34 410.49 299.93Q410.66 299.53 410.66 298.67L410.66 298.67L410.66 289.85Q410.66 288.99 410.50 288.59Q410.35 288.18 409.91 288.03Q409.48 287.87 408.59 287.87L408.59 287.87Q408.50 287.87 408.50 287.69Q408.50 287.52 408.59 287.52L408.59 287.52L410.46 287.55L411.87 287.52Q412.22 287.52 412.30 287.62Q412.39 287.72 412.39 288.07L412.39 288.07L412.39 289.77Q413.74 288.41 415.07 287.80Q416.39 287.18 417.89 287.18L417.89 287.18Q420.02 287.18 421.32 288.34Q422.61 289.51 422.61 291.93L422.61 291.93L422.61 298.67Q422.61 299.53 422.74 299.95Q422.87 300.37 423.23 300.51Q423.59 300.65 424.34 300.65L424.34 300.65Z" data-element="slogan" data-text-path="" data-text="Simple Cuenta, Fuerte Gestión" data-font-family="Cormorant Unicase" fill="#000000" fill-opacity="1"></path></g></g></svg>