<svg version="1.1" id="Layer_1" xmlns="http://www.w3.org/2000/svg" xmlns:xlink="http://www.w3.org/1999/xlink" x="0px" y="0px"
	 width="100%" viewBox="0 0 699 883" enable-background="new 0 0 699 883" xml:space="preserve">
<path fill="#FFFFFF" opacity="1.000000" stroke="none" 
	d="
M0.999999,792.000000 
	C1.000000,528.373901 1.000000,264.747864 1.000000,1.060891 
	C233.923523,1.060891 466.847076,1.060891 699.885315,1.060891 
	C699.885315,295.211517 699.885315,589.423096 699.885315,884.000000 
	C582.973389,884.000000 465.946381,884.000000 348.704956,883.692993 
	C350.131744,883.195374 351.813782,883.174011 353.408203,882.789490 
	C395.441895,872.651001 422.440613,834.176453 414.905609,790.034668 
	C410.503815,764.247559 395.822968,745.047729 372.601685,732.902649 
	C357.921570,725.224670 342.256775,722.426331 325.603729,724.852173 
	C310.322144,727.078186 296.583405,732.420654 284.910217,742.584534 
	C277.492889,749.042786 270.617126,756.149719 262.975494,762.317871 
	C248.657440,773.875183 231.911652,779.488708 213.628708,779.825928 
	C205.428101,779.977234 197.156693,778.975342 188.993179,777.913940 
	C169.937119,775.436523 155.119186,764.946594 141.699005,752.046509 
	C138.029709,748.519287 134.815170,744.431946 130.814499,741.351624 
	C113.050636,727.674011 93.091255,721.865479 70.618698,724.900146 
	C42.845367,728.650574 22.444973,743.092651 9.410213,767.519409 
	C5.399500,775.035339 3.737475,783.804626 0.999999,792.000000 
M339.458374,605.000000 
	C332.738281,604.330261 325.921539,604.162537 319.317383,602.890686 
	C303.482849,599.841187 289.355988,593.122742 277.475555,581.966492 
	C270.880341,575.773315 264.560364,569.148560 257.304474,563.824829 
	C239.681427,550.894653 219.793579,546.582153 198.132919,549.929321 
	C171.538651,554.038879 152.434357,568.587158 139.702347,591.768738 
	C130.592865,608.354736 129.026855,626.378845 132.206757,644.699280 
	C134.494415,657.879150 139.879715,670.036438 148.784332,680.185608 
	C162.579559,695.908752 179.686844,705.444153 200.751297,708.253967 
	C216.397278,710.340942 230.964401,707.612305 245.097260,701.412476 
	C256.271545,696.510437 264.891876,688.308899 273.159729,679.486267 
	C288.494995,663.121948 307.965363,654.864258 330.053223,653.120300 
	C344.802704,651.955688 359.424835,653.352966 373.392883,658.961365 
	C383.156281,662.881592 392.602692,667.724121 399.542450,675.543518 
	C410.011261,687.339417 421.568542,697.228271 436.320221,703.122192 
	C450.800415,708.907715 465.814941,710.699219 481.053070,707.801270 
	C501.075012,703.993652 517.871948,694.188416 529.867798,677.499084 
	C548.826111,651.123108 551.639160,622.633728 537.937805,593.285706 
	C529.412781,575.025146 515.148987,561.894592 496.104858,554.589966 
	C473.925629,546.082703 451.971344,546.683777 430.366058,556.844421 
	C419.386963,562.007690 411.025665,570.391296 402.616394,578.804932 
	C385.468781,595.961670 364.414001,604.016296 339.458374,605.000000 
z"/>
<path fill="#BDBDBD" opacity="1.000000" stroke="none" 
	d="
M0.999999,792.468628 
	C3.737475,783.804626 5.399500,775.035339 9.410213,767.519409 
	C22.444973,743.092651 42.845367,728.650574 70.618698,724.900146 
	C93.091255,721.865479 113.050636,727.674011 130.814499,741.351624 
	C134.815170,744.431946 138.029709,748.519287 141.699005,752.046509 
	C155.119186,764.946594 169.937119,775.436523 188.993179,777.913940 
	C197.156693,778.975342 205.428101,779.977234 213.628708,779.825928 
	C231.911652,779.488708 248.657440,773.875183 262.975494,762.317871 
	C270.617126,756.149719 277.492889,749.042786 284.910217,742.584534 
	C296.583405,732.420654 310.322144,727.078186 325.603729,724.852173 
	C342.256775,722.426331 357.921570,725.224670 372.601685,732.902649 
	C395.822968,745.047729 410.503815,764.247559 414.905609,790.034668 
	C422.440613,834.176453 395.441895,872.651001 353.408203,882.789490 
	C351.813782,883.174011 350.131744,883.195374 348.245270,883.692993 
	C255.312439,884.000000 162.624878,884.000000 69.225220,883.691528 
	C66.874939,883.197815 65.188896,883.201172 63.605698,882.799316 
	C36.631706,875.952148 17.053993,860.318970 6.618437,834.170105 
	C4.276122,828.300781 2.848660,822.066345 1.000005,816.000000 
	C1.000000,808.312439 1.000000,800.624817 0.999999,792.468628 
z"/>
<path fill="#FFFFFF" opacity="1.000000" stroke="none" 
	d="
M1.000005,816.468628 
	C2.848660,822.066345 4.276122,828.300781 6.618437,834.170105 
	C17.053993,860.318970 36.631706,875.952148 63.605698,882.799316 
	C65.188896,883.201172 66.874939,883.197815 68.756561,883.691528 
	C46.406487,884.000000 23.812971,884.000000 1.000000,884.000000 
	C1.000000,861.646240 1.000000,839.291809 1.000005,816.468628 
z"/>
<path fill="#B3B3B3" opacity="1.000000" stroke="none" 
	d="
M339.937988,605.000000 
	C364.414001,604.016296 385.468781,595.961670 402.616394,578.804932 
	C411.025665,570.391296 419.386963,562.007690 430.366058,556.844421 
	C451.971344,546.683777 473.925629,546.082703 496.104858,554.589966 
	C515.148987,561.894592 529.412781,575.025146 537.937805,593.285706 
	C551.639160,622.633728 548.826111,651.123108 529.867798,677.499084 
	C517.871948,694.188416 501.075012,703.993652 481.053070,707.801270 
	C465.814941,710.699219 450.800415,708.907715 436.320221,703.122192 
	C421.568542,697.228271 410.011261,687.339417 399.542450,675.543518 
	C392.602692,667.724121 383.156281,662.881592 373.392883,658.961365 
	C359.424835,653.352966 344.802704,651.955688 330.053223,653.120300 
	C307.965363,654.864258 288.494995,663.121948 273.159729,679.486267 
	C264.891876,688.308899 256.271545,696.510437 245.097260,701.412476 
	C230.964401,707.612305 216.397278,710.340942 200.751297,708.253967 
	C179.686844,705.444153 162.579559,695.908752 148.784332,680.185608 
	C139.879715,670.036438 134.494415,657.879150 132.206757,644.699280 
	C129.026855,626.378845 130.592865,608.354736 139.702347,591.768738 
	C152.434357,568.587158 171.538651,554.038879 198.132919,549.929321 
	C219.793579,546.582153 239.681427,550.894653 257.304474,563.824829 
	C264.560364,569.148560 270.880341,575.773315 277.475555,581.966492 
	C289.355988,593.122742 303.482849,599.841187 319.317383,602.890686 
	C325.921539,604.162537 332.738281,604.330261 339.937988,605.000000 
z"/>
</svg>